<svg viewBox="0 0 1920 1080" xmlns="http://www.w3.org/2000/svg"><defs><linearGradient id="dmzGradient" x1="0%" y1="0%" x2="0%" y2="100%"><stop offset="0%" stop-color="#FFF4E6" stop-opacity="1"/><stop offset="100%" stop-color="#FFE4B5" stop-opacity="1"/></linearGradient><linearGradient id="appGradient" x1="0%" y1="0%" x2="0%" y2="100%"><stop offset="0%" stop-color="#E8F5E9" stop-opacity="1"/><stop offset="100%" stop-color="#C8E6C9" stop-opacity="1"/></linearGradient><linearGradient id="dataGradient" x1="0%" y1="0%" x2="0%" y2="100%"><stop offset="0%" stop-color="#E3F2FD" stop-opacity="1"/><stop offset="100%" stop-color="#BBDEFB" stop-opacity="1"/></linearGradient><marker id="arrowhead" markerWidth="10" markerHeight="10" refX="9" refY="3" orient="auto"><polygon points="0 0, 10 3, 0 6" fill="#232F3E"/></marker></defs><rect width="1920" height="1080" fill="#F5F5F5"/><text x="960" y="50" font-family="Arial, sans-serif" font-size="32" font-weight="bold" fill="#232F3E" text-anchor="middle">Cloud Security Architecture - Network Traffic Flow</text><rect x="530" y="150" width="280" height="780" fill="url(#dmzGradient)" stroke="#FF9800" stroke-width="3" rx="10"/><text x="670" y="185" font-family="Arial, sans-serif" font-size="22" font-weight="bold" fill="#E65100" text-anchor="middle">DMZ</text><rect x="1030" y="150" width="320" height="780" fill="url(#appGradient)" stroke="#4CAF50" stroke-width="3" rx="10"/><text x="1190" y="185" font-family="Arial, sans-serif" font-size="22" font-weight="bold" fill="#2E7D32" text-anchor="middle">Application Zone</text><rect x="1570" y="150" width="280" height="780" fill="url(#dataGradient)" stroke="#2196F3" stroke-width="3" rx="10"/><text x="1710" y="185" font-family="Arial, sans-serif" font-size="22" font-weight="bold" fill="#1565C0" text-anchor="middle">Data Zone</text><g transform="translate(100, 480)"><circle cx="50" cy="50" r="45" fill="#4285F4" stroke="#1967D2" stroke-width="3"/><ellipse cx="50" cy="50" rx="45" ry="20" fill="none" stroke="white" stroke-width="2"/><ellipse cx="50" cy="50" rx="20" ry="45" fill="none" stroke="white" stroke-width="2"/><line x1="5" y1="50" x2="95" y2="50" stroke="white" stroke-width="2"/><path d="M 50 5 Q 35 30 50 50 Q 65 30 50 5" fill="none" stroke="white" stroke-width="2"/><path d="M 50 95 Q 35 70 50 50 Q 65 70 50 95" fill="none" stroke="white" stroke-width="2"/><text x="50" y="130" font-family="Arial, sans-serif" font-size="18" font-weight="bold" fill="#232F3E" text-anchor="middle">Internet</text></g><line x1="200" y1="530" x2="270" y2="530" stroke="#232F3E" stroke-width="6" marker-end="url(#arrowhead)"/><g transform="translate(280, 480)"><rect x="0" y="0" width="100" height="100" fill="#FF9900" stroke="#E67300" stroke-width="3" rx="8"/><path d="M 20 30 L 50 15 L 80 30 L 80 70 L 50 85 L 20 70 Z" fill="white"/><circle cx="50" cy="45" r="15" fill="#FF9900"/><path d="M 42 45 L 48 51 L 62 37" fill="none" stroke="white" stroke-width="3" stroke-linecap="round"/><text x="50" y="130" font-family="Arial, sans-serif" font-size="16" font-weight="bold" fill="#232F3E" text-anchor="middle">WAF</text></g><line x1="380" y1="530" x2="430" y2="530" stroke="#232F3E" stroke-width="6" marker-end="url(#arrowhead)"/><g transform="translate(430, 480)"><rect x="0" y="0" width="100" height="100" fill="#DD4B39" stroke="#C23321" stroke-width="3" rx="8"/><path d="M 50 15 L 25 35 L 25 70 L 50 85 L 75 70 L 75 35 Z" fill="#FFA000"/><circle cx="50" cy="50" r="8" fill="#DD4B39"/><path d="M 50 30 L 50 45 M 35 50 L 50 50 M 50 55 L 50 70 M 65 50 L 50 50" stroke="white" stroke-width="2" stroke-linecap="round"/><text x="50" y="130" font-family="Arial, sans-serif" font-size="14" font-weight="bold" fill="#232F3E" text-anchor="middle">External</text><text x="50" y="148" font-family="Arial, sans-serif" font-size="14" font-weight="bold" fill="#232F3E" text-anchor="middle">Firewall</text></g><line x1="530" y1="530" x2="600" y2="530" stroke="#232F3E" stroke-width="6" marker-end="url(#arrowhead)"/><g transform="translate(620, 460)"><rect x="0" y="0" width="120" height="120" fill="#FF4F8B" stroke="#D91965" stroke-width="3" rx="8"/><rect x="15" y="20" width="90" height="15" fill="white" rx="3"/><rect x="15" y="45" width="90" height="15" fill="white" rx="3"/><rect x="15" y="70" width="90" height="15" fill="white" rx="3"/><circle cx="25" cy="27.5" r="4" fill="#FF4F8B"/><circle cx="25" cy="52.5" r="4" fill="#FF4F8B"/><circle cx="25" cy="77.5" r="4" fill="#FF4F8B"/><path d="M 35 27.5 L 95 27.5 M 35 52.5 L 95 52.5 M 35 77.5 L 95 77.5" stroke="#FF4F8B" stroke-width="2"/><path d="M 30 95 L 60 95 L 60 105 L 90 95 L 60 85 L 60 95" fill="white"/><text x="60" y="150" font-family="Arial, sans-serif" font-size="16" font-weight="bold" fill="#232F3E" text-anchor="middle">API Gateway</text></g><line x1="810" y1="530" x2="920" y2="530" stroke="#232F3E" stroke-width="6" marker-end="url(#arrowhead)"/><g transform="translate(920, 480)"><rect x="0" y="0" width="100" height="100" fill="#34A853" stroke="#2D8E47" stroke-width="3" rx="8"/><path d="M 50 15 L 25 35 L 25 70 L 50 85 L 75 70 L 75 35 Z" fill="#81C995"/><circle cx="50" cy="50" r="8" fill="#34A853"/><path d="M 50 30 L 50 45 M 35 50 L 50 50 M 50 55 L 50 70 M 65 50 L 50 50" stroke="white" stroke-width="2" stroke-linecap="round"/><text x="50" y="130" font-family="Arial, sans-serif" font-size="14" font-weight="bold" fill="#232F3E" text-anchor="middle">Internal</text><text x="50" y="148" font-family="Arial, sans-serif" font-size="14" font-weight="bold" fill="#232F3E" text-anchor="middle">Firewall</text></g><line x1="1020" y1="530" x2="1080" y2="530" stroke="#232F3E" stroke-width="6" marker-end="url(#arrowhead)"/><g transform="translate(1110, 380)"><rect x="0" y="0" width="100" height="80" fill="#4285F4" stroke="#1967D2" stroke-width="2" rx="6"/><rect x="10" y="10" width="80" height="15" fill="white" rx="2"/><rect x="10" y="30" width="35" height="40" fill="#34A853" rx="3"/><rect x="55" y="30" width="35" height="40" fill="#FBBC04" rx="3"/><text x="50" y="100" font-family="Arial, sans-serif" font-size="12" fill="#232F3E" text-anchor="middle">App Server</text></g><g transform="translate(1110, 530)"><rect x="0" y="0" width="100" height="80" fill="#4285F4" stroke="#1967D2" stroke-width="2" rx="6"/><rect x="10" y="10" width="80" height="15" fill="white" rx="2"/><rect x="10" y="30" width="35" height="40" fill="#EA4335" rx="3"/><rect x="55" y="30" width="35" height="40" fill="#34A853" rx="3"/><text x="50" y="100" font-family="Arial, sans-serif" font-size="12" fill="#232F3E" text-anchor="middle">Container</text></g><g transform="translate(1110, 680)"><rect x="0" y="0" width="100" height="80" fill="#4285F4" stroke="#1967D2" stroke-width="2" rx="6"/><rect x="10" y="10" width="80" height="15" fill="white" rx="2"/><rect x="10" y="30" width="35" height="40" fill="#FBBC04" rx="3"/><rect x="55" y="30" width="35" height="40" fill="#EA4335" rx="3"/><text x="50" y="100" font-family="Arial, sans-serif" font-size="12" fill="#232F3E" text-anchor="middle">App Server</text></g><line x1="1350" y1="530" x2="1450" y2="530" stroke="#232F3E" stroke-width="6" marker-end="url(#arrowhead)"/><g transform="translate(1450, 480)"><rect x="0" y="0" width="100" height="100" fill="#2196F3" stroke="#1976D2" stroke-width="3" rx="8"/><path d="M 50 15 L 25 35 L 25 70 L 50 85 L 75 70 L 75 35 Z" fill="#64B5F6"/><circle cx="50" cy="50" r="8" fill="#2196F3"/><path d="M 50 30 L 50 45 M 35 50 L 50 50 M 50 55 L 50 70 M 65 50 L 50 50" stroke="white" stroke-width="2" stroke-linecap="round"/><text x="50" y="130" font-family="Arial, sans-serif" font-size="14" font-weight="bold" fill="#232F3E" text-anchor="middle">Data</text><text x="50" y="148" font-family="Arial, sans-serif" font-size="14" font-weight="bold" fill="#232F3E" text-anchor="middle">Firewall</text></g><line x1="1550" y1="530" x2="1620" y2="530" stroke="#232F3E" stroke-width="6" marker-end="url(#arrowhead)"/><g transform="translate(1640, 380)"><ellipse cx="50" cy="15" rx="45" ry="12" fill="#4285F4" stroke="#1967D2" stroke-width="2"/><rect x="5" y="15" width="90" height="60" fill="#5294F7"/><ellipse cx="50" cy="75" rx="45" ry="12" fill="#6BA5F8" stroke="#1967D2" stroke-width="2"/><line x1="5" y1="35" x2="95" y2="35" stroke="#1967D2" stroke-width="1.5"/><line x1="5" y1="55" x2="95" y2="55" stroke="#1967D2" stroke-width="1.5"/><text x="50" y="110" font-family="Arial, sans-serif" font-size="12" fill="#232F3E" text-anchor="middle">Database</text></g><g transform="translate(1640, 580)"><rect x="10" y="0" width="80" height="70" fill="#34A853" stroke="#2D8E47" stroke-width="2" rx="6"/><path d="M 20 15 L 30 15 L 35 25 L 30 35 L 20 35 Z" fill="white"/><path d="M 40 15 L 50 15 L 55 25 L 50 35 L 40 35 Z" fill="white"/><path d="M 60 15 L 70 15 L 75 25 L 70 35 L 60 35 Z" fill="white"/><rect x="20" y="45" width="60" height="8" fill="white" rx="2"/><text x="50" y="95" font-family="Arial, sans-serif" font-size="12" fill="#232F3E" text-anchor="middle">Object Storage</text></g><g transform="translate(100, 980)"><text x="0" y="0" font-family="Arial, sans-serif" font-size="18" font-weight="bold" fill="#232F3E">Traffic Flow Direction: Left to Right</text><line x1="0" y1="15" x2="100" y2="15" stroke="#232F3E" stroke-width="4" marker-end="url(#arrowhead)"/></g><text x="960" y="1050" font-family="Arial, sans-serif" font-size="14" fill="#666" text-anchor="middle">Enterprise Cloud Security Architecture | Multi-Layer Defense Strategy</text></svg>